<svg xmlns="http://www.w3.org/2000/svg" aria-hidden="true" style="position:absolute;width:0;height:0;overflow:hidden">
  <defs>
    <symbol id="icon-twitter" viewBox="0 0 39 32">
      <path d="M34.377 7.987c.023.322.023.643.023.965 0 9.813-7.582 21.119-21.441 21.119-4.27 0-8.236-1.218-11.572-3.332.607.069 1.19.092 1.82.092 3.523 0 6.766-1.172 9.355-3.171-3.313-.069-6.089-2.206-7.046-5.148.467.069.933.115 1.423.115.677 0 1.353-.092 1.983-.253-3.453-.689-6.043-3.677-6.043-7.285v-.092a7.672 7.672 0 0 0 3.406.942c-2.03-1.333-3.36-3.608-3.36-6.182 0-1.379.373-2.643 1.026-3.746 3.71 4.504 9.286 7.446 15.538 7.767a8.236 8.236 0 0 1-.187-1.7c0-4.091 3.36-7.423 7.536-7.423a7.57 7.57 0 0 1 5.506 2.344 14.993 14.993 0 0 0 4.783-1.792 7.422 7.422 0 0 1-3.313 4.09 15.27 15.27 0 0 0 4.339-1.149 16.068 16.068 0 0 1-3.779 3.838z"/>
    </symbol>
    <symbol id="icon-facebook" viewBox="0 0 17 32">
      <path d="M5.387 30.28V16.737H.812v-5.382h4.575v-4.24C5.387 2.508 8.226 0 12.371 0c1.986 0 3.692.148 4.187.213v4.814h-2.875c-2.255 0-2.69 1.065-2.69 2.62v3.708h5.087l-.698 5.382h-4.39V30.28z"/>
    </symbol>
    <symbol id="icon-pinterest" viewBox="0 0 26 32">
      <path d="M14.059.574c-6.533 0-12.99 4.056-12.99 10.621 0 4.175 2.522 6.547 4.05 6.547.63 0 .993-1.637.993-2.099 0-.552-1.509-1.726-1.509-4.021 0-4.768 3.897-8.148 8.94-8.148 4.336 0 7.545 2.295 7.545 6.512 0 3.149-1.356 9.056-5.75 9.056-1.585 0-2.942-1.067-2.942-2.597 0-2.242 1.681-4.412 1.681-6.725 0-3.926-5.979-3.214-5.979 1.53 0 .996.134 2.099.611 3.007-.879 3.523-2.674 8.771-2.674 12.4 0 1.121.172 2.224.287 3.345.216.225.108.202.439.089 3.209-4.092 3.095-4.893 4.546-10.248.783 1.388 2.808 2.135 4.413 2.135 6.762 0 9.8-6.138 9.8-11.671 0-5.889-5.463-9.732-11.461-9.732z"/>
    </symbol>
    <symbol id="icon-linkedin" viewBox="0 0 30 32">
      <path d="M6.584 30.255H.486V10.494h6.098v19.761zM3.532 7.798C1.582 7.798 0 6.173 0 4.21S1.582.656 3.532.656 7.064 2.248 7.064 4.21 5.482 7.798 3.532 7.798zm25.876 22.457h-6.085v-9.62c0-2.293-.046-5.233-3.171-5.233-3.171 0-3.656 2.491-3.656 5.067v9.785h-6.092V10.493h5.849v2.696h.085c.814-1.553 2.803-3.191 5.77-3.191 6.171 0 7.306 4.09 7.306 9.402v10.855h-.006z"/>
    </symbol>
  </defs>
</svg>
